# xmcd
#
# Track frame offsets: 
#        150
#        9722
#        20358
#        40710
#        56977
#        69512
#        82217
#        101977
#        115859
#        125286
#        134805
#        154553
#        170569
#        185141
#
# Disc length: 2623 seconds
#
# Revision: 0
# Processed by: cddbd v1.5.2PL0 Copyright (c) Steve Scherf et al.
# Submitted via: ExactAudioCopy v0.99pb4
#
DISCID=ca0a3d0e
DTITLE=willie nelson - playlist: the very best of
DYEAR=1900
DGENRE=Country
TTITLE0=Willie Nelson - Track01 OnTheRoadAgain
TTITLE1=Willie Nelson - Track02 IfYou'veGotTheMoney
TTITLE2=Willie Nelson - Track03 BlueEyesCryingIntheR..
TTITLE3=Willie Nelson - Track04 AngelFlying2Close2Th..
TTITLE4=Willie Nelson - Track05 ThePilgrim:Chapter33
TTITLE5=Willie Nelson - Track06 I'mMovinOn~HankSnow
TTITLE6=Willie Nelson - Track07 BigRiver~CashJenning..
TTITLE7=Willie Nelson - Track08 GeorgiaOnMyMind
TTITLE8=Willie Nelson - Track09 IfUCanTouchHerAtAll~..
TTITLE9=Willie Nelson - Track10 Something2BragAbout~..
TTITLE10=Willie Nelson - Track11 LiveFastLoveHardDieY..
TTITLE11=Willie Nelson - Track12 LastThingINeedded1st..
TTITLE12=Willie Nelson - Track13 AlwaysOnMyMind
TTITLE13=Willie Nelson - Track14 SweetMemories
EXTD=
EXTT0=
EXTT1=
EXTT2=
EXTT3=
EXTT4=
EXTT5=
EXTT6=
EXTT7=
EXTT8=
EXTT9=
EXTT10=
EXTT11=
EXTT12=
EXTT13=
PLAYORDER=
